<svg xmlns="http://www.w3.org/2000/svg" viewBox="0 0 100 100">
  <defs>
    <linearGradient id="bg" x1="0%" y1="0%" x2="100%" y2="100%">
      <stop offset="0%" style="stop-color:#ed6520"/>
      <stop offset="100%" style="stop-color:#de4c16"/>
    </linearGradient>
  </defs>
  <rect width="100" height="100" rx="20" fill="url(#bg)"/>
  <g fill="white" transform="translate(20, 20)">
    <!-- Brain icon simplified -->
    <path d="M30 5c-8 0-15 7-15 15 0 3 1 6 2 8l-7 22c-1 2 1 5 3 5h34c2 0 4-3 3-5l-7-22c1-2 2-5 2-8 0-8-7-15-15-15zm0 8c4 0 7 3 7 7s-3 7-7 7-7-3-7-7 3-7 7-7z"/>
    <circle cx="30" cy="20" r="3"/>
  </g>
</svg>
